<svg xmlns="http://www.w3.org/2000/svg" xmlns:xlink="http://www.w3.org/1999/xlink" fill="none" version="1.1" width="35.0864372253418" height="35.839996337890625" viewBox="0 0 35.0864372253418 35.839996337890625"><g><path d="M17.54339,0C11.620056,0,6.8182721,4.6449485,6.8182721,10.374715C6.8182721,13.938827,8.6762009,17.083197,11.506328,18.951019C4.9452686,21.275904,0.21916027,27.281538,0.00066007982,34.383125C-0.02336959,35.164062,0.61166042,35.815971,1.4190416,35.839355C2.2264111,35.86256,2.9004068,35.248188,2.9244316,34.467255C3.1587105,26.85297,9.6143513,20.74943,17.543215,20.74943C25.472136,20.74943,31.927778,26.85297,32.161983,34.467255C32.185966,35.248188,32.8601,35.86256,33.667423,35.839355C34.474739,35.815971,35.109875,35.164062,35.085693,34.383125C34.867283,27.281731,30.14134,21.275904,23.580393,18.951019C26.410503,17.083288,28.268511,13.938883,28.268511,10.374715C28.268511,4.6449485,23.466709,0,17.54339,0C17.54339,0,17.54339,0,17.54339,0ZM9.7433472,10.374715C9.7433472,6.2075691,13.235576,2.8294675,17.54339,2.8294675C21.851286,2.8294675,25.343433,6.2075691,25.343433,10.374715C25.343433,14.541859,21.851286,17.919964,17.54339,17.919964C13.235576,17.919964,9.7433472,14.541859,9.7433472,10.374715C9.7433472,10.374715,9.7433472,10.374715,9.7433472,10.374715Z" fill-rule="evenodd" fill="currentColor" fill-opacity="1"/></g></svg>