<svg class="icon icon-cart" viewBox="0 0 1024 1024" version="1.1" xmlns="http://www.w3.org/2000/svg">
    <path d="M647.46347179 381.15205461c0 20.16492317 15.05647616 36.43129401 33.60820566 36.431294s33.60820566-16.31118222 33.60820449-36.431294h-67.21641015zM512 50.80580322l-0.13443298 36.43129516H512v-36.43129514z m-169.8334629 182.38052695l-33.60820567-0.17924325v0.13443189h33.60820567z m-33.60820567 147.96572444c0 20.16492317 15.05647616 36.43129401 33.60820567 36.431294s33.60820566-16.31118222 33.60820452-36.431294h-67.21641019z m406.07674028 0V233.99292702h-67.21641016v147.15912759h67.21641016z m0-147.15912759c0-121.25840384-90.74215366-219.57360639-202.63507171-219.57360641V87.19228702c74.78945906 0 135.41866155 65.6928381 135.41866155 146.75582974h67.21641016z m-202.50063873-219.57360641c-111.93772829-0.53773086-203.08318094 97.28455111-203.57610155 218.58776631l67.21641019 0.31367625c0.31367623-81.06299051 61.25655495-146.44215239 136.09082538-146.08366479l0.26886598-72.81777777zM308.60314283 233.14151881v0.85140819h67.21641015v-0.85140822h-67.21641015z m0 0.85140819v147.15912761h67.21641015V233.99292702h-67.21641015z"
          fill="currentColor" />
    <path d="M724.4934781 912.5201829H299.5065219v72.81777777h424.9869562v-72.81777777z m-424.9869562 0c-86.8436025 0-157.19677838-76.1785981-157.1967784-170.14713913h-67.21641017c0 134.20876573 100.46612821 242.96491806 224.41318857 242.9649169v-72.81777777zM142.3097435 742.32823239v-267.79017784h-67.21641017v267.79017784h67.21641017z m0-267.79017784c0-93.96854102 70.3531759-170.14714028 157.1967784-170.14714028V231.61794786c-123.94706033 0-224.41318857 108.75615231-224.41318857 242.96491691h67.21641017z m157.1967784-170.14714028h424.9869562V231.61794786H299.5065219v72.81777778z m424.9869562 0c86.8436025 0 157.19677838 76.1785981 157.1967784 170.14714028h67.21641017c0-134.20876573-100.46612821-242.96491806-224.41318857-242.96491805v72.81777777z m157.1967784 170.14714028v267.79017784h67.21641017v-267.79017784h-67.21641017z m0 267.79017784c0 93.92373078-70.3531759 170.14714028-157.19677838 170.14714027v72.81777777c123.94706033 0 224.41318857-108.75615231 224.41318855-242.96491804h-67.21641017z"
          fill="currentColor" />
</svg>
