<svg xmlns="http://www.w3.org/2000/svg" xmlns:xlink="http://www.w3.org/1999/xlink" fill="none" version="1.1" width="28" height="28" viewBox="0 0 28 28"><g><g><rect x="0" y="0" width="28" height="28" rx="0" fill="#FFFFFF" fill-opacity="0"/></g><g><path d="M13.504238635906983,3.1106666905995994C16.01130283590698,3.1116042589396,18.04357583590698,5.2834443918396,18.04357583590698,7.962659391839599L18.04357583590698,8.0601210918396L18.917836835906982,8.0601210918396C21.78617983590698,8.0601210918396,24.111111835906982,10.4884380918396,24.111111835906982,13.4849477918396L24.111111835906982,19.4636357918396C24.111111835906982,22.4601337918396,21.78617983590698,24.888463791839598,18.917836835906982,24.888463791839598L9.082142335906983,24.888463791839598C6.213801135906982,24.888463791839598,3.8888888359069824,22.4601337918396,3.8888888359069824,19.4636357918396L3.8888888359069824,13.4849477918396C3.8888888359069824,10.5368413918396,6.139298235906983,8.1387195918396,8.943576335906982,8.0620140918396L8.943576335906982,7.9409470918395995C8.954416235906983,5.2612080918396,10.996658835906983,3.1000376068395994,13.504238635906983,3.1106666905995994ZM8.943576335906982,9.6886462918396L8.943576335906982,11.215197091839599C8.943576335906982,11.6595358918396,9.280770335906983,12.0197500918396,9.696721035906982,12.0197500918396C10.112672335906982,12.0197500918396,10.449866335906982,11.6595358918396,10.449866335906982,11.215197091839599L10.449866335906982,9.6859430918396L16.53728583590698,9.6859430918396L16.53728583590698,11.215197091839599C16.53728583590698,11.6595358918396,16.874484835906983,12.0197500918396,17.290431835906983,12.0197500918396C17.706376835906983,12.0197500918396,18.04357583590698,11.6595358918396,18.04357583590698,11.215197091839599L18.04357583590698,9.6859430918396L18.917836835906982,9.6859430918396C20.927926835906984,9.6859430918396,22.555556835906984,11.3872141918396,22.555556835906984,13.4849477918396L22.555556835906984,19.4636357918396C22.555556835906984,21.5613797918396,20.927926835906984,23.2626417918396,18.917836835906982,23.2626417918396L9.082142335906983,23.2626417918396C7.072084435906982,23.2626417918396,5.444444535906983,21.5613797918396,5.444444535906983,19.4636357918396L5.444444535906983,13.4849477918396C5.444444535906983,11.4356350918396,6.997811035906983,9.764694191839599,8.943576335906982,9.6886462918396ZM16.53728583590698,8.0601210918396L10.449866335906982,8.0601210918396L10.449866335906982,7.944422691839599C10.458860835906982,6.1551756918396,11.823288935906984,4.7120314918396,13.499359635906982,4.7197640918395996L13.502614535906982,4.719771591839599C15.178271835906983,4.719771591839599,16.53728583590698,6.171274691839599,16.53728583590698,7.962659391839599L16.53728583590698,8.0601210918396Z" fill-rule="evenodd" fill="currentColor" fill-opacity="1"/></g></g></svg>