<svg class="icon icon-account" viewBox="0 0 1024 1024" version="1.1" xmlns="http://www.w3.org/2000/svg">
    <path d="M511.73767625 32C357.40984906 32 232.29276781 156.4313825 232.29276781 309.89065906c0 95.44920187 48.41029875 179.65295063 122.14572188 229.70892563C183.47105 601.86098938 60.31963812 762.72580719 54.60548563 952.93851125A37.98768469 37.98768469 0 0 0 91.63319281 991.97760031a38.03339813 38.03339813 0 0 0 39.22194188-36.7534275c6.12557156-203.97238312 174.30450469-367.44285469 380.928255-367.44285562s374.84839594 163.47047156 380.92825406 367.44285562a38.03339813 38.03339813 0 0 0 39.22194281 36.7534275 37.98768469 37.98768469 0 0 0 36.98199375-39.03908906c-5.7141525-190.16699156-128.86556437-351.07752281-299.83300406-413.33892656a277.15924688 277.15924688 0 0 0 122.19143437-229.70892563C791.22829813 156.4313825 666.06550437 32 511.73767625 32zM308.49670438 309.89065906c0-111.63168094 90.96930562-202.09814156 203.24097187-202.09814156 112.27166625 0 203.24097187 90.51217406 203.24097187 202.05242813 0 111.67739437-90.96930562 202.143855-203.24097187 202.143855-112.22595281 0-203.24097187-90.51217406-203.24097188-202.09814157z"
        fill="currentColor" />
</svg>
