<svg xmlns="http://www.w3.org/2000/svg" xmlns:xlink="http://www.w3.org/1999/xlink" fill="none" version="1.1" width="35.578125" height="37.33335876464844" viewBox="0 0 35.578125 37.33335876464844"><g><path d="M16.918554,0.00006692556843749999C21.329479,0.0016756232484375,24.905056,3.7248294521484375,24.905056,8.317768052148438L24.905056,8.484771752148438L26.441908,8.484771752148438C31.488468,8.484771752148438,35.578949,12.647599952148438,35.578949,17.784472952148437L35.578949,28.033652952148437C35.578949,33.17050895214844,31.488468,37.33335895214844,26.441908,37.33335895214844L9.137002,37.33335895214844C4.0904469,37.33335895214844,0,33.17050895214844,0,28.033652952148437L0,17.784472952148437C0,12.730124952148438,3.9600737,8.618778252148438,8.8945312,8.487981752148437L8.8945312,8.280547152148438C8.9136038,3.6867089521484373,12.506721,-0.0181544848515625,16.918554,0.00006692556843749999ZM8.8945312,11.276478952148437L8.8945312,13.893545952148438C8.8945312,14.655269952148437,9.4877901,15.272779952148438,10.219613,15.272779952148438C10.951437,15.272779952148438,11.544695,14.655269952148437,11.544695,13.893545952148438L11.544695,11.271894952148438L22.254892,11.271894952148438L22.254892,13.893545952148438C22.254892,14.655269952148437,22.84816,15.272779952148438,23.579975,15.272779952148438C24.311789,15.272779952148438,24.905056,14.655269952148437,24.905056,13.893545952148438L24.905056,11.271894952148438L26.441908,11.271894952148438C29.978456,11.271894952148438,32.842106,14.188358952148437,32.842106,17.784472952148437L32.842106,28.033652952148437C32.842106,31.62978595214844,29.978456,34.54623395214844,26.441908,34.54623395214844L9.137002,34.54623395214844C5.6005096,34.54623395214844,2.7368424,31.62978595214844,2.7368424,28.033652952148437L2.7368424,17.784472952148437C2.7368424,14.270914952148438,5.4705367,11.406158952148438,8.8945312,11.276478952148437ZM22.254892,8.484771752148438L11.544695,8.484771752148438L11.544695,8.286504752148437C11.56052,5.219224952148437,13.961094,2.7452635521484376,16.909969,2.7585194521484375L16.915695,2.7585322521484374C19.863846,2.7585322521484374,22.254892,5.2468233521484375,22.254892,8.317768052148438L22.254892,8.484771752148438ZM16.915695,1.3790695521484375L16.915695,1.3792992521484375L16.915695,1.3790695521484375Z" fill-rule="evenodd" fill="currentColor" fill-opacity="1"/></g></svg>