<svg xmlns="http://www.w3.org/2000/svg" xmlns:xlink="http://www.w3.org/1999/xlink" fill="none" version="1.1" width="166" height="57.00001525878906" viewBox="0 0 166 57.00001525878906"><g><g><g><path d="M162.78761585334777,36.61996125878906C160.96721585334777,32.56527725878906,157.59405585334778,29.097461258789064,153.20369585334777,28.00379525878906C148.70620585334777,26.883434258789062,143.94101585334778,26.083162258789063,140.8891058533478,22.215227258789064C137.6498558533478,18.13388625878906,137.83719585334777,12.585382258789062,136.15069585334777,7.863815258789063C134.43733585334778,3.1422462587890627,129.1902658533478,-1.7393685412109374,123.80938585334778,0.6080852187890625C120.70396585334778,1.9685193587890626,119.12451585334777,5.382975558789062,118.05367585334778,8.557362558789062C116.98286585334777,11.758410258789063,116.01907585334777,15.226228258789062,113.44909585334779,17.413635258789064C111.36097585334778,19.200887258789063,108.55008585334778,19.841112258789064,105.84619585334778,20.267929258789064C101.26841285334778,20.961477258789063,97.65433085334777,24.215889258789062,93.18356585334777,25.229566258789063C88.55219585334778,26.269909258789063,84.42954585334778,23.895796258789062,81.43113985334777,20.507999258789063C80.70836185334778,19.681066258789063,80.01229385334778,18.827432258789063,79.10209985334778,18.24056825878906C77.60293885334778,17.280250258789064,75.67543385334778,17.253589258789063,73.90854985334778,17.493660258789063C68.92921785334778,18.13388625878906,65.26154285334778,21.308229258789062,60.54993385334778,22.588684258789062C54.981646853347776,24.082502258789063,47.61966985334778,24.642704258789063,43.14890585334778,20.241230258789063C41.97098485334778,19.094204258789063,41.06078685334778,17.653705258789063,39.69544885334778,16.693388258789064C35.01055485334778,13.332293258789063,29.763495853347777,16.693388258789064,27.40765485334778,20.988138258789064C26.283244853347778,23.01545925878906,25.346331853347777,25.202867258789063,23.68646885334778,26.803371258789063C21.143210853347778,29.257505258789063,17.047278853347777,29.92439425878906,13.861545853347778,28.43057425878906C12.871038653347778,27.950437258789062,11.934043153347778,27.283550258789063,10.890023453347778,26.936754258789062C9.123140553347778,26.349889258789062,7.356256453347778,27.150165258789063,6.686985753347779,28.910751258789062L3.6350735573477784,36.966755258789064C3.4744551933477785,37.393574258789066,3.7956919233477784,37.90041725878906,4.277547003347778,37.90041725878906L45.31717585334778,37.90041725878906C46.57540485334778,37.90041725878906,47.86043885334778,37.767029258789066,49.09187285334778,37.50029725878906C52.78625785334778,36.70002725878906,55.43654185334778,35.97977825878906,58.99710385334778,37.793731258789066C60.92460185334778,38.754047258789065,62.932421853347776,39.87441625878906,65.07404985334779,39.661003258789066C68.09916985334777,39.31421325878906,70.08018085334778,36.96679325878906,73.37301985334778,37.87375225878906C75.51465885334778,38.46061325878906,77.38863685334778,40.114483258789065,79.63738585334778,40.14118625878906C82.02002285334778,40.16784325878906,84.16165485334778,38.32727025878906,86.57100985334777,38.46061325878906C89.11426885334778,38.62066225878906,91.12208885334778,40.968117258789064,93.66525585334777,41.101501258789064C96.52975785334777,41.234890258789065,98.88560785334778,38.513981258789066,101.75002585334778,38.487316258789065C103.89164585334778,38.487316258789065,105.79243585334778,39.95447525878906,107.90727585334778,40.00783925878906C110.31663585334778,40.03450025878906,112.43155585334777,38.220585258789065,114.84090585334778,38.27394825878906C117.14315585334778,38.327312258789064,119.17776585334778,40.06119925878906,121.48009585334778,39.901153258789066C123.24699585334778,39.76776525878906,124.69262585334778,38.54072225878906,126.29881585334778,37.79380825878906C128.73496585334777,36.67344625878906,131.01051585334778,37.10026125878906,133.52696585334778,37.52703825878906C135.02612585334776,37.79380825878906,136.52528585334778,37.92715425878906,138.02444585334777,37.92715425878906L161.98434585334778,37.92715425878906C162.62683585334779,37.92715425878906,163.08188585334779,37.26026525878906,162.8142558533478,36.64674725878906L162.78761585334777,36.61996125878906Z" fill="#FFFFFF" fill-opacity="1" style="mix-blend-mode:passthrough"/></g><g><path d="M115.75118873713684,7.463658598278808C114.19851673713684,5.196227598278808,111.44112613713685,3.7824312782788088,108.36241693713684,4.182587661278808C104.96255233713684,4.636065658278809,102.20516133713684,7.356974598278809,101.75002150213685,10.771429998278808C101.34847557713684,13.812431298278808,102.74052853713684,16.560001798278808,105.01606443713685,18.10718379827881C105.17668293713685,18.21386779827881,105.39089513713684,18.267228798278808,105.60502573713684,18.21386779827881C107.80025223713685,17.787049798278808,109.94188523713684,17.093501798278808,111.62845923713684,15.65300479827881C113.87719873713684,13.732367498278808,114.89450373713684,10.851412798278808,115.83149873713684,8.023820398278808C115.88500973713684,7.837072598278809,115.85829373713685,7.650365598278809,115.75118873713684,7.490319298278809L115.75118873713684,7.463658598278808Z" fill="#FFFFFF" fill-opacity="1" style="mix-blend-mode:passthrough"/></g></g><g><g><path d="M4.6790938,55.506198259129334L2.5909724,55.506198259129334C2.4571509,55.506198259129334,2.3232477,55.586221559129335,2.2965326,55.719606759129334L2.0556052,56.46651585912933C2.0556052,56.46651585912933,1.8949866,56.679925359129335,1.7611653,56.679925359129335L0.31551796,56.679925359129335C0.10138729,56.679925359129335,-0.059312791,56.46651585912933,0.021078102,56.25310745912933L2.591054,49.717627059129335C2.591054,49.717627059129335,2.7516725,49.50421845912933,2.8854942,49.50421845912933L4.3846531,49.50421845912933C4.3846531,49.50421845912933,4.6255813,49.584241599129335,4.6790938,49.69096624912933L7.3026633,56.22644695912933C7.3829727,56.439854959129335,7.2223539,56.65326435912933,7.0082231,56.65326435912933L5.5090642,56.65326435912933C5.3752427,56.65326435912933,5.2413397,56.57324065912933,5.2146239,56.439854959129335L4.9736967,55.69294585912933C4.9736967,55.69294585912933,4.8130784,55.47953685912933,4.6792564,55.47953685912933L4.6790938,55.506198259129334ZM3.4476583,52.25178805912933L2.9390061,53.665584459129335C2.9390061,53.665584459129335,2.9925184,53.93235525912933,3.1264217,53.93235525912933L4.1437259,53.93235525912933C4.2775474,53.93235525912933,4.3846531,53.798969659129334,4.3311415,53.665584459129335L3.8224895,52.225127059129335C3.7689769,52.03837935912934,3.5012522,52.03837935912934,3.4476583,52.225127059129335L3.4476583,52.25178805912933Z" fill="#FFFFFF" fill-opacity="1" style="mix-blend-mode:passthrough"/></g><g><path d="M23.391868591308594,53.878993029346844L23.391868591308594,49.79765018934685C23.391868591308594,49.61090237934685,23.525689991308592,49.47755762934685,23.713105381308594,49.47755762934685L25.105158691308596,49.47755762934685C25.292573891308592,49.47755762934685,25.426395191308593,49.61094308934685,25.426395191308593,49.79765018934685L25.426395191308593,53.85233212934685C25.426395191308593,54.545879329346846,25.881535291308595,54.999358129346845,26.550805791308594,54.999358129346845C27.220076091308595,54.999358129346845,27.675216191308593,54.545879329346846,27.675216191308593,53.85233212934685L27.675216191308593,49.79765018934685C27.675216191308593,49.61090237934685,27.809037191308594,49.47755762934685,27.99645279130859,49.47755762934685L29.388505891308593,49.47755762934685C29.575921091308594,49.47755762934685,29.709742991308595,49.61094308934685,29.709742991308595,49.79765018934685L29.709742991308595,53.878993029346844C29.709742991308595,55.639583129346846,28.397998291308593,56.83997102934685,26.577521091308594,56.83997102934685C24.757042991308595,56.83997102934685,23.445299122308594,55.639583129346846,23.445299122308594,53.878993029346844L23.391868591308594,53.878993029346844Z" fill="#FFFFFF" fill-opacity="1" style="mix-blend-mode:passthrough"/></g><g><path d="M46.81633838546875,54.35913136972656L48.26198555546875,54.35913136972656C48.39580695546875,54.35913136972656,48.52971005546875,54.465816069726564,48.55642555546875,54.59920116972656C48.66353175546875,54.94599536972656,48.98476865546875,55.13270236972656,49.35951735546875,55.13270236972656C49.78786035546875,55.13270236972656,50.16260905546875,54.91929386972656,50.16260905546875,54.51917786972656C50.16260905546875,54.06570056972656,49.600445055468754,53.93231436972656,48.90437745546875,53.77226826972656C47.86027625546875,53.50549746972656,46.54853212546875,53.18540476972656,46.54853212546875,51.558199869726565C46.54853212546875,50.14440351972656,47.59263335546875,49.34413146972656,49.27912645546875,49.34413146972656C50.85859535546875,49.34413146972656,51.82238765546875,50.09104120972656,51.98300595546875,51.31813056972656C51.98300595546875,51.50487826972656,51.84918405546875,51.69158556972656,51.66176895546875,51.69158556972656L50.26971555546875,51.69158556972656C50.13589425546875,51.69158556972656,50.00199075546875,51.584901369726566,49.97527595546875,51.45151586972656C49.86816975546875,51.158084269726565,49.600445055468754,51.02469886972656,49.25249285546875,51.02469886972656C48.90445925546875,51.02469886972656,48.55642555546875,51.184744869726565,48.55642555546875,51.50483746972656C48.55642555546875,51.90495326972656,49.09187435546875,52.03833866972656,49.78786035546875,52.22508646972656C50.85867695546875,52.49185756972656,52.22401475546875,52.83861066972656,52.22401475546875,54.492517469726565C52.22401475546875,56.146424269726566,51.01929525546875,56.86663146972656,49.33280205546875,56.86663146972656C47.64630905546875,56.86663146972656,46.62892301546875,56.093061469726564,46.44158935546875,54.73258636972656C46.44158935546875,54.545838869726566,46.57541078546875,54.35913136972656,46.76282614546875,54.35913136972656L46.81633838546875,54.35913136972656Z" fill="#FFFFFF" fill-opacity="1" style="mix-blend-mode:passthrough"/></g><g><path d="M72.24861812949219,49.47751693427563C70.16049752949219,49.47751693427563,68.47392272949219,51.15808433427563,68.47392272949219,53.238766934275624C68.47392272949219,55.31945023427563,70.16049752949219,57.00001693427563,72.24861812949219,57.00001693427563C74.33673862949219,57.00001693427563,76.02331352949219,55.31945023427563,76.02331352949219,53.238766934275624C76.02331352949219,51.15808433427563,74.33673862949219,49.47751693427563,72.24861812949219,49.47751693427563ZM72.24861812949219,55.05271943427563C71.25811102949218,55.05271943427563,70.42822192949218,54.25244793427563,70.42822192949218,53.238807734275625C70.42822192949218,52.225168034275626,71.23131392949219,51.424895934275625,72.24861812949219,51.424895934275625C73.26592202949219,51.424895934275625,74.0690140294922,52.225168034275626,74.0690140294922,53.238807734275625C74.0690140294922,54.25244793427563,73.26592202949219,55.05271943427563,72.24861812949219,55.05271943427563Z" fill="#FFFFFF" fill-opacity="1" style="mix-blend-mode:passthrough"/></g><g><path d="M97.41324474814454,55.15940422934685L97.41324474814454,56.33313082934685C97.41324474814454,56.51987882934685,97.27942324814452,56.65322302934685,97.09200764814453,56.65322302934685L93.15669363814453,56.65322302934685C92.96927827814453,56.65322302934685,92.83545684814453,56.51983732934685,92.83545684814453,56.33313082934685L92.83545684814453,49.79765018934685C92.83545684814453,49.61090237934685,92.96927827814453,49.47755762934685,93.15669363814453,49.47755762934685L94.52203164814453,49.47755762934685C94.70944704814453,49.47755762934685,94.84326864814453,49.61094308934685,94.84326864814453,49.79765018934685L94.84326864814453,54.51921892934685C94.84326864814453,54.70596692934685,94.97708984814453,54.839311529346844,95.16450524814454,54.839311529346844L97.09200764814453,54.839311529346844C97.27942324814452,54.839311529346844,97.41324474814454,54.97269672934685,97.41324474814454,55.15940422934685Z" fill="#FFFFFF" fill-opacity="1" style="mix-blend-mode:passthrough"/></g><g><path d="M120.32907055820313,55.266128539299395L120.32907055820313,56.359832339299395C120.32907055820313,56.546580339299396,120.19524905820313,56.67992453929939,120.00783395820312,56.67992453929939L115.93869891820313,56.67992453929939C115.75128355820313,56.67992453929939,115.61746215820312,56.546538839299394,115.61746215820312,56.359832339299395L115.61746215820312,49.82435169929939C115.61746215820312,49.63760388929939,115.75128355820313,49.50425913929939,115.93869891820313,49.50425913929939L119.90080925820313,49.50425913929939C120.08822445820313,49.50425913929939,120.22204585820313,49.63764459929939,120.22204585820313,49.82435169929939L120.22204585820313,50.891354039299394C120.22204585820313,51.07810173929939,120.08822445820313,51.211446539299395,119.90080925820313,51.211446539299395L117.89299775820312,51.211446539299395C117.70558285820313,51.211446539299395,117.57176135820312,51.34483193929939,117.57176135820312,51.53153903929939L117.57176135820312,51.95835643929939C117.57176135820312,52.145103739299394,117.70558285820313,52.278448839299394,117.89299775820312,52.278448839299394L119.63308525820312,52.278448839299394C119.82049985820312,52.278448839299394,119.95432135820313,52.41183453929939,119.95432135820313,52.598541339299395L119.95432135820313,53.58552033929939C119.95432135820313,53.772267839299396,119.82049985820312,53.905612939299395,119.63308525820312,53.905612939299395L117.89299775820312,53.905612939299395C117.70558285820313,53.905612939299395,117.57176135820312,54.03899863929939,117.57176135820312,54.22570513929939L117.57176135820312,54.679183539299395C117.57176135820312,54.865931539299396,117.70558285820313,54.99927623929939,117.89299775820312,54.99927623929939L119.98111815820313,54.99927623929939C120.16853335820312,54.99927623929939,120.30235525820312,55.13266133929939,120.30235525820312,55.319368439299396L120.32907055820313,55.266128539299395Z" fill="#FFFFFF" fill-opacity="1" style="mix-blend-mode:passthrough"/></g><g><path d="M140.1662532694922,49.47751693427563L141.53159127949218,49.47751693427563C141.71900637949219,49.47751693427563,141.8528279794922,49.61090239427563,141.8528279794922,49.797609494275626L141.8528279794922,56.33309013427563C141.8528279794922,56.51983813427563,141.71900637949219,56.65318233427563,141.53159127949218,56.65318233427563L140.1662532694922,56.65318233427563C139.97883787949218,56.65318233427563,139.8450164794922,56.51979663427563,139.8450164794922,56.33309013427563L139.8450164794922,49.797609494275626C139.8450164794922,49.610861684275626,139.97883787949218,49.47751693427563,140.1662532694922,49.47751693427563Z" fill="#FFFFFF" fill-opacity="1" style="mix-blend-mode:passthrough"/></g><g><path d="M165.9999928873047,55.15940422934685L165.9999928873047,56.33313082934685C165.9999928873047,56.51987882934685,165.8661713873047,56.65322302934685,165.67875618730469,56.65322302934685L161.7435237773047,56.65322302934685C161.55610839730468,56.65322302934685,161.4222869873047,56.51983732934685,161.4222869873047,56.33313082934685L161.4222869873047,49.79765018934685C161.4222869873047,49.61090237934685,161.55610839730468,49.47755762934685,161.7435237773047,49.47755762934685L163.1088618873047,49.47755762934685C163.29627708730467,49.47755762934685,163.4300984873047,49.61094308934685,163.4300984873047,49.79765018934685L163.4300984873047,54.51921892934685C163.4300984873047,54.70596692934685,163.5639199873047,54.839311529346844,163.7513353873047,54.839311529346844L165.67875618730469,54.839311529346844C165.8661713873047,54.839311529346844,165.9999928873047,54.97269672934685,165.9999928873047,55.15940422934685Z" fill="#FFFFFF" fill-opacity="1" style="mix-blend-mode:passthrough"/></g></g></g></svg>